<?xml version="1.0" encoding="utf-8"?>
<!-- Generator: Adobe Illustrator 21.1.0, SVG Export Plug-In . SVG Version: 6.00 Build 0)  -->
<svg version="1.1" id="Слой_1" xmlns="http://www.w3.org/2000/svg" xmlns:xlink="http://www.w3.org/1999/xlink" x="0px" y="0px"
	 width="26" height="26" viewBox="0 0 126 126" xml:space="preserve">
<style type="text/css">
	.st0{fill:#FFFFFF;}
</style>
<g>
	<g>
		<path class="st0" d="M74.8,0c2.8,0,5.7,0,8.5,0c0,0.2,0,0.4,0,0.5c0,4.8,0,9.7,0,14.5c0,0.2,0,0.3,0,0.5c0.2,0,0.3,0,0.4,0
			c23.1,0,23.8,26.4,15.6,32c-0.1,0.1-0.2,0.1-0.3,0.2c0.2,0.1,0.3,0.2,0.5,0.3c1.5,0.9,11.9,3.6,11.9,19.9
			c0,7.2-4.8,20.3-25.7,20.3c-0.8,0-1.6,0.1-2.4,0.1c0,5.2,0,10.4,0,15.6c-2.9,0-5.7,0-8.5,0c0-5.2,0-10.4,0-15.6
			c-2.8,0-5.6,0-8.4,0c0,5.2,0,10.4,0,15.5c-2.9,0-5.7,0-8.5,0c0-5.2,0-10.4,0-15.6c-6.4,0-12.7,0-19,0c0-0.1,0-0.1,0-0.2
			c0-0.1,0.1-0.1,0.1-0.2c0.8-3.5,1.5-7,2.3-10.6c0.1-0.4,0.2-0.5,0.6-0.5c2.8,0,5.7,0,8.5,0c0.2,0,0.3,0,0.5,0c0-17,0-34,0-51
			c-4,0-8,0-12,0c0-3.5,0-6.9,0-10.4c6.3,0,12.7,0,19.1,0c0-0.2,0-0.4,0-0.6c0-4.8,0-9.7,0-14.5c0-0.2,0-0.4,0-0.5
			c2.8,0,5.7,0,8.5,0c0,0.1,0,0.2,0,0.2c0,5,0,10,0,15c0,0.1,0,0.2,0,0.3c2.8,0,5.6,0,8.4,0c0-0.2,0-0.4,0-0.5c0-4.9,0-9.7,0-14.6
			C74.8,0.3,74.8,0.2,74.8,0z M66.4,76.9c0.2,0,0.3,0,0.4,0c4.5,0,9.1,0,13.6,0c1.9,0,3.8-0.2,5.6-0.7c2-0.6,3.8-1.5,5.3-3
			c1.9-2,2.6-4.4,2.7-7.1c0.1-4.6-2.2-8.1-6.3-9.8c-2.2-0.9-4.4-1.2-6.8-1.3c-4.7,0-9.4,0-14.2,0c-0.1,0-0.2,0-0.3,0
			C66.4,62.4,66.4,69.7,66.4,76.9z M66.4,45.7c0.1,0,0.2,0,0.3,0c3.7,0,7.3,0,11,0c1.6,0,3.3-0.3,4.8-0.9c3.5-1.4,5.9-3.8,6.3-7.8
			c0.4-3.6-0.7-6.6-3.5-8.7c-2.3-1.7-4.9-2.4-7.6-2.4c-3.6,0-7.3,0-10.9,0c-0.1,0-0.3,0-0.4,0C66.4,32.6,66.4,39.1,66.4,45.7z"/>
	</g>
</g>
<g>
	<polygon class="st0" points="38.5,38.1 20.5,27.8 20.5,33.1 0,33.1 0,43.2 20.5,43.2 20.5,48.5 	"/>
	<polygon class="st0" points="0,65.4 17.9,75.8 17.9,70.5 38.5,70.5 38.5,60.4 17.9,60.4 17.9,55.1 	"/>
</g>
</svg>
