<?xml version="1.0" encoding="UTF-8"?>
<svg xmlns="http://www.w3.org/2000/svg" xmlns:xlink="http://www.w3.org/1999/xlink" width="26" height="26" viewBox="0 0 26 26" version="1.1">
<g id="surface1">
<path style=" stroke:none;fill-rule:nonzero;fill:#FFFFFF;fill-opacity:1;" d="M 5 0.917969 C 4.4375 0.984375 4.414062 1 4.621094 1.128906 C 5.914062 1.914062 7.742188 3.226562 8.960938 4.242188 C 11.847656 6.640625 14.703125 9.890625 16.773438 13.136719 C 16.976562 13.453125 17.152344 13.710938 17.179688 13.710938 C 17.230469 13.710938 17.226562 12.75 17.164062 12.210938 C 16.941406 10.210938 16.125 8.160156 14.808594 6.285156 C 14.527344 5.886719 14.488281 5.851562 14.371094 5.878906 C 14.300781 5.902344 14.039062 5.914062 13.789062 5.914062 C 13.382812 5.914062 13.292969 5.902344 13 5.757812 C 12.378906 5.464844 11.945312 4.992188 11.734375 4.386719 C 11.640625 4.125 11.625 3.992188 11.640625 3.644531 C 11.65625 3.414062 11.679688 3.1875 11.695312 3.148438 C 11.71875 3.09375 11.574219 2.964844 11.109375 2.660156 C 9.75 1.757812 8.484375 1.230469 7.132812 0.992188 C 6.5625 0.894531 5.523438 0.851562 5 0.917969 Z M 5 0.917969 "/>
<path style=" stroke:none;fill-rule:nonzero;fill:#FFFFFF;fill-opacity:1;" d="M 23.410156 3.738281 C 22.5 4.726562 21.695312 5.617188 21.617188 5.710938 L 21.476562 5.886719 L 22.230469 9.050781 C 22.652344 10.789062 22.988281 12.21875 22.984375 12.226562 C 22.972656 12.234375 22.359375 12.335938 21.609375 12.453125 C 20.402344 12.644531 20.242188 12.679688 20.207031 12.773438 C 20.144531 12.902344 19.246094 16.644531 19.246094 16.753906 C 19.246094 16.808594 19.835938 17.144531 21.074219 17.796875 C 22.078125 18.328125 22.902344 18.777344 22.902344 18.792969 C 22.902344 18.8125 22.445312 19.449219 21.882812 20.210938 C 21.242188 21.078125 20.875 21.621094 20.890625 21.667969 C 20.910156 21.710938 21.230469 22.203125 21.609375 22.753906 C 21.988281 23.308594 22.273438 23.765625 22.246094 23.765625 C 22.191406 23.765625 17.972656 22.457031 17.945312 22.429688 C 17.9375 22.421875 18.113281 21.925781 18.335938 21.339844 C 18.5625 20.742188 18.734375 20.242188 18.71875 20.222656 C 18.703125 20.195312 17.835938 19.804688 16.789062 19.34375 C 15.195312 18.648438 14.882812 18.496094 14.882812 18.40625 C 14.882812 18.351562 15.027344 17.382812 15.203125 16.25 C 15.382812 15.117188 15.523438 14.1875 15.519531 14.183594 C 15.515625 14.179688 14.242188 14.832031 12.695312 15.640625 C 11.148438 16.449219 9.863281 17.117188 9.847656 17.125 C 9.828125 17.132812 9.765625 18.015625 9.710938 19.089844 C 9.648438 20.160156 9.585938 21.046875 9.570312 21.0625 C 9.558594 21.078125 8.316406 20.789062 6.816406 20.417969 C 5.316406 20.046875 4.046875 19.742188 3.992188 19.738281 C 3.910156 19.726562 3.789062 20.074219 3.066406 22.320312 C 2.609375 23.742188 2.234375 24.9375 2.234375 24.96875 C 2.234375 25.019531 4.558594 25.035156 13.6875 25.035156 L 25.136719 25.035156 L 25.136719 13.484375 C 25.136719 7.128906 25.121094 1.929688 25.101562 1.929688 C 25.074219 1.929688 24.320312 2.742188 23.410156 3.738281 Z M 23.410156 3.738281 "/>
<path style=" stroke:none;fill-rule:nonzero;fill:#FFFFFF;fill-opacity:1;" d="M 12.910156 3.046875 C 12.742188 3.125 12.671875 3.195312 12.59375 3.363281 C 12.472656 3.632812 12.46875 3.761719 12.574219 4.113281 C 12.683594 4.5 13.082031 4.890625 13.484375 5 C 13.964844 5.144531 14.367188 5.011719 14.527344 4.65625 C 14.644531 4.398438 14.648438 4.261719 14.542969 3.910156 C 14.390625 3.402344 13.78125 2.941406 13.257812 2.945312 C 13.1875 2.945312 13.03125 2.992188 12.910156 3.046875 Z M 12.910156 3.046875 "/>
<path style=" stroke:none;fill-rule:nonzero;fill:#FFFFFF;fill-opacity:1;" d="M 5.617188 10.8125 L 1.257812 15.167969 L 1.316406 15.351562 C 1.457031 15.78125 1.898438 16.238281 2.355469 16.429688 L 2.554688 16.515625 L 6.917969 12.152344 C 9.3125 9.753906 11.273438 7.769531 11.273438 7.742188 C 11.273438 7.695312 10.226562 6.640625 10.054688 6.511719 C 9.988281 6.464844 9.257812 7.171875 5.617188 10.8125 Z M 5.617188 10.8125 "/>
<path style=" stroke:none;fill-rule:nonzero;fill:#FFFFFF;fill-opacity:1;" d="M 18.027344 7.121094 C 18.027344 7.292969 18.484375 11.34375 18.507812 11.363281 C 18.539062 11.394531 18.496094 11.527344 19.265625 9.152344 L 19.941406 7.058594 L 18.988281 7.058594 C 18.25 7.058594 18.027344 7.074219 18.027344 7.121094 Z M 18.027344 7.121094 "/>
<path style=" stroke:none;fill-rule:nonzero;fill:#FFFFFF;fill-opacity:1;" d="M 10.804688 11.757812 C 10.53125 12.242188 10.308594 12.671875 10.308594 12.695312 C 10.308594 12.726562 10.375 12.746094 10.449219 12.746094 C 10.53125 12.746094 11.589844 12.828125 12.796875 12.921875 C 14.003906 13.019531 15.007812 13.089844 15.019531 13.082031 C 15.046875 13.050781 14.949219 12.996094 13.015625 11.84375 C 12.117188 11.304688 11.363281 10.867188 11.339844 10.867188 C 11.320312 10.867188 11.074219 11.269531 10.804688 11.757812 Z M 10.804688 11.757812 "/>
</g>
</svg>
