<svg width="26" height="27" viewBox="0 0 26 27" fill="none" xmlns="http://www.w3.org/2000/svg">
<path d="M23.2028 18.4275C23.4109 18.4275 23.6369 18.2609 23.6823 18.0314C24.4502 14.1733 25.2185 10.3152 25.9869 6.45708C26.0545 6.11791 25.8448 5.77443 25.5074 5.77443C19.3374 5.77443 13.1678 5.77443 6.99773 5.77443C6.24374 5.77443 5.48935 5.77443 4.73535 5.77443C4.58893 5.02361 4.44251 4.27322 4.29648 3.5224C4.12858 2.66197 3.96107 1.80155 3.79316 0.940692C3.7482 0.71113 3.5222 0.545 3.31331 0.545C2.36872 0.545 1.42454 0.545 0.479959 0.545C-0.16024 0.545 -0.161035 1.62377 0.479959 1.62377C1.29006 1.62377 2.10055 1.62377 2.91104 1.62377C3.50071 4.6482 4.08998 7.67263 4.67965 10.6975C4.68164 10.7687 4.69556 10.8386 4.71983 10.9038C5.26494 13.6995 5.80964 16.4952 6.35475 19.291C6.48884 19.9788 6.62292 20.6666 6.75701 21.3544C5.81124 21.7333 5.11732 22.7283 5.11732 23.8692C5.11732 25.2833 6.18008 26.4825 7.48077 26.5424C8.8682 26.6067 9.90469 25.4568 10.0443 24.0298C10.0551 23.9806 10.0619 23.9284 10.0591 23.8692C10.0619 23.8106 10.0555 23.7592 10.0447 23.7104C9.99262 23.1754 9.81477 22.6783 9.53744 22.2684C13.1753 22.2684 16.8128 22.2684 20.4507 22.2684C20.1355 22.7184 19.9442 23.2733 19.9442 23.8692C19.9442 25.2833 21.0069 26.4825 22.3076 26.5424C23.695 26.6067 24.7315 25.4568 24.8712 24.0298C24.8819 23.9806 24.8887 23.9284 24.8859 23.8692C24.8887 23.8106 24.8823 23.7592 24.8716 23.7104C24.7367 22.3288 23.7611 21.1896 22.415 21.1896C17.5234 21.1896 12.6318 21.1896 7.73979 21.1896C7.56034 20.2688 7.3809 19.3483 7.20145 18.4275C12.5355 18.4275 17.8692 18.4275 23.2028 18.4275ZM5.79612 11.2162C6.91259 11.2162 8.02905 11.2162 9.14592 11.2162C9.47298 13.2602 9.80004 15.3047 10.1271 17.3487C9.08186 17.3487 8.03661 17.3487 6.99176 17.3487C6.59308 15.3047 6.1944 13.2606 5.79612 11.2162ZM15.3788 17.3487C15.3788 15.3047 15.3788 13.2602 15.3788 11.2162C16.8753 11.2162 18.3713 11.2162 19.8678 11.2162C19.5407 13.2602 19.2136 15.3047 18.8866 17.3487C17.7172 17.3487 16.5478 17.3487 15.3788 17.3487ZM14.3841 17.3487C13.3003 17.3487 12.216 17.3487 11.1322 17.3487C10.8051 15.3047 10.478 13.2602 10.151 11.2162C11.5619 11.2162 12.9732 11.2162 14.3841 11.2162C14.3841 13.2606 14.3841 15.3047 14.3841 17.3487ZM22.8022 17.3487C21.8321 17.3487 20.8617 17.3487 19.8916 17.3487C20.2187 15.3047 20.5458 13.2602 20.8728 11.2162C21.3161 11.2162 21.7593 11.2162 22.203 11.2162C22.8097 11.2162 23.4165 11.2162 24.0233 11.2162C23.6162 13.2606 23.2092 15.3047 22.8022 17.3487ZM22.8424 6.8532C23.5255 6.8532 24.2087 6.8532 24.8919 6.8532C24.6738 7.94793 24.4558 9.04267 24.2381 10.1374C18.6904 10.1374 13.1427 10.1374 7.59496 10.1374C6.92532 10.1374 6.25568 10.1374 5.58603 10.1374C5.37277 9.04267 5.1591 7.94793 4.94583 6.8532C10.9109 6.8532 16.8768 6.8532 22.8424 6.8532ZM6.11244 23.8697C6.11244 21.8002 8.96289 21.8183 9.06475 23.8697C8.96289 25.9202 6.11244 25.9383 6.11244 23.8697ZM23.8916 23.8697C23.7897 25.9202 20.9393 25.9383 20.9393 23.8697C20.9389 21.8002 23.7897 21.8183 23.8916 23.8697Z" fill="white"/>
</svg>
