<?xml version="1.0" encoding="utf-8"?>
<!-- Generator: Adobe Illustrator 21.1.0, SVG Export Plug-In . SVG Version: 6.00 Build 0)  -->
<svg version="1.1" id="Слой_1" xmlns="http://www.w3.org/2000/svg" xmlns:xlink="http://www.w3.org/1999/xlink" x="0px" y="0px"
	 viewBox="0 0 30 30" style="enable-background:new 0 0 30 30;" xml:space="preserve">
<style type="text/css">
	.st0{fill:#FF5E39;}
</style>
<title>waves_logo</title>
<desc>Created with Sketch.</desc>
<g>
	<path class="st0" d="M25.2,10.7c-0.1-0.2-0.1-0.4-0.3-0.6c-0.4-0.7-0.7-1.3-1.2-1.9c-0.3-0.4-0.6-0.7-0.9-1c-1-1-2.2-1.8-3.5-2.4
		C18,4.2,16.5,3.9,15,3.9c-1.6,0-3,0.3-4.3,0.9C9.4,5.3,8.2,6.1,7.2,7.2c-1,1-1.9,2.2-2.4,3.5C4.2,12,3.9,13.5,3.9,15
		c0,1.6,0.3,3,0.9,4.3c0.6,1.3,1.3,2.5,2.4,3.5c1,1,2.2,1.8,3.5,2.4c1.3,0.6,2.8,0.9,4.3,0.9s3-0.3,4.3-0.9c0.4-0.1,0.7-0.3,1-0.4
		c1.1-0.4,2.3-0.1,3.1,0.8c0.3,0.3,0.7,0.5,1.2,0.5c0.8,0,1.5-0.7,1.5-1.6c0,0,0.1-9.2,0.1-9.5C26.1,13.5,25.8,12,25.2,10.7z M15,23
		c-1.1,0.1-2.2-0.2-3.1-0.6c-1-0.4-1.9-1-2.5-1.7c-0.7-0.7-1.3-1.6-1.7-2.5c-0.4-1-0.6-2-0.6-3.1s0.2-2.2,0.6-3.1
		c0.4-1,1-1.9,1.7-2.5c0.7-0.7,1.6-1.3,2.5-1.7c1-0.4,2-0.6,3.1-0.6s2.2,0.2,3.1,0.6c0.4,0.1,0.7,0.4,1.1,0.6c0.5,0.3,1,0.7,1.5,1.1
		c0.2,0.2,0.4,0.4,0.7,0.7c0.4,0.5,0.7,1.2,1,1.8c0.4,1,0.6,2,0.6,3.1s-0.2,2.2-0.6,3.1c-0.3,0.7-0.7,1.3-1.1,1.9
		c-0.1,0.2-0.4,0.4-0.6,0.7C20.3,21.1,18.3,22.8,15,23z"/>
	<circle class="st0" cx="15" cy="15" r="4.1"/>
</g>
</svg>
