<svg version="1" xmlns="http://www.w3.org/2000/svg" width="682.667" height="682.667" viewBox="0 0 512.000000 512.000000"><path d="M248.7 66.6c-.1.1-4 .4-8.7.8-21.4 1.5-38.6 6.1-62.8 16.9-21.7 9.7-33.8 18.2-51.8 36.2-22.1 22.2-34 39.3-43.9 63.1-5.4 13-9.5 25.6-10.9 33.9-.3 1.6-.8 4.1-1.1 5.5-.5 2.5-1.1 6.6-2.1 15.5-1.3 10.6-.7 33 1.1 45 .9 5.8 1.7 10.2 2.1 11.7.3 1 .7 3 1 4.5 2 11.1 13.6 38.4 22.9 53.8 14.6 24.2 37.5 47 63.5 63.3 11.7 7.3 37.2 19.3 44 20.7.8.2 4 1 7 1.9 6.5 1.8 11.5 2.7 28 5.2 8.3 1.2 32.4.6 44.5-1 18.9-2.6 32.2-6.6 57.4-17.2 15.4-6.5 26.8-7.5 39.1-3.4 7.8 2.6 12.2 5.3 20.1 12.6 7.1 6.5 13.3 9.4 20.3 9.6 7.9.1 13.3-2 18.7-7.4 7.3-7.3 8.1-10.9 8.5-37.8 1-78.7 1.2-152.3.4-158-2.8-18.5-4.1-24.7-7.7-37-3.3-10.9-9.9-27.5-12.7-32-1.3-1.9-4.9-8-8.1-13.5-8.2-14.1-15.4-23.3-27.6-35.6-10-9.9-28.5-24.8-34.7-27.9-1.5-.8-3.4-2-4.2-2.6-3.3-2.7-23.1-12.4-32.5-15.9-8.5-3.2-23.4-7.1-33.7-8.9-6.6-1.1-35.2-2.7-36.1-2zm29.3 58c4.7.7 10.5 1.8 13 2.4 7.1 1.7 23.2 7.9 27 10.4 1.9 1.3 6 3.8 9 5.7 16.1 9.8 35.4 26.4 41.7 35.9 4.3 6.3 13.6 25.3 16.2 32.7 7.7 22.6 9.6 49.7 5.1 73.4-2.6 13.6-10.1 32.9-16.6 42.4-1.3 2-2.4 3.8-2.4 4 0 1.4-9.8 14.8-14.7 19.8-11.4 12-34.4 25.3-56.2 32.7-24.1 8-53.5 10.7-72.1 6.5-19-4.3-43.6-15.7-55.9-26-17.8-14.9-36.9-41.5-42.9-60-6.1-18.7-7.7-28.2-7.6-47 0-18.3 1.8-30.1 6.6-44 2.4-7.1 8.7-21.4 10.3-23.5.6-.8 1.7-2.6 2.4-4 2.7-5.6 11.6-16.3 20-24.2 23.6-22.2 46.1-33.1 78.1-38.1 5.9-.9 31.2-.3 39 .9z"/><path d="M245.5 186.7c-13 2.7-19.6 5.4-28.7 11.5-19.7 13.2-31.2 35.8-30.4 59.7.4 11.1 1.6 17.2 5.4 25.6 8.6 19.4 25 33.8 45.7 40.1 9.3 2.8 29.9 2.5 38.5-.5 9.1-3.2 12.7-4.9 19-9.2 14.4-9.7 24.7-24.5 28.9-41.2 1.8-6.9 2.2-24.7.8-30.2-3.3-12.7-5.3-17.4-10.9-25.5-4.8-7.1-6.1-8.4-13.3-14.7-11.8-10.1-28-16-44-16-4.9 0-9.9.2-11 .4z"/></svg>