<?xml version="1.0" encoding="utf-8"?>
<!-- Generator: Adobe Illustrator 21.1.0, SVG Export Plug-In . SVG Version: 6.00 Build 0)  -->
<svg version="1.1" id="Слой_1" xmlns="http://www.w3.org/2000/svg" xmlns:xlink="http://www.w3.org/1999/xlink" x="0px" y="0px"
	 viewBox="0 0 132 112" style="enable-background:new 0 0 132 112;" xml:space="preserve">
<style type="text/css">
	.st0{fill:#2D2D2D;}
	.st1{fill:none;stroke:#F6BD6C;stroke-width:3;}
	.st2{fill:#F6BD6C;}
</style>
<title>Group</title>
<desc>Created with Sketch.</desc>
<g id="Welcome_step_2_4" transform="translate(-654.000000, -140.000000)">
	<g id="Group" transform="translate(654.000000, 140.000000)">
		<g id="Rectangle-Copy-5" transform="translate(75.988580, 55.996378) rotate(45.000000) translate(-75.988580, -55.996378) ">
			<g>
				
					<rect id="path-1" x="36.9" y="16.9" transform="matrix(2.535182e-06 1 -1 2.535182e-06 131.9847 -19.9923)" class="st0" width="78.2" height="78.2"/>
			</g>
			
				<rect x="38.4" y="18.4" transform="matrix(2.535182e-06 1 -1 2.535182e-06 131.9847 -19.9923)" class="st1" width="75.2" height="75.2"/>
		</g>
		<g id="Rectangle-Copy-4" transform="translate(65.988580, 55.996378) rotate(45.000000) translate(-65.988580, -55.996378) ">
			<g>
				
					<rect id="path-2" x="26.9" y="16.9" transform="matrix(2.535182e-06 1 -1 2.535182e-06 121.9847 -9.9923)" class="st0" width="78.2" height="78.2"/>
			</g>
			
				<rect x="28.4" y="18.4" transform="matrix(2.535182e-06 1 -1 2.535182e-06 121.9847 -9.9923)" class="st1" width="75.2" height="75.2"/>
		</g>
		<g id="Rectangle" transform="translate(56.111111, 56.111111) rotate(45.000000) translate(-56.111111, -56.111111) ">
			<g>
				
					<rect id="path-3" x="17" y="17" transform="matrix(2.535182e-06 1 -1 2.535182e-06 112.222 -1.418093e-04)" class="st0" width="78.2" height="78.2"/>
			</g>
			
				<rect x="18.5" y="18.5" transform="matrix(2.535182e-06 1 -1 2.535182e-06 112.222 -1.418093e-04)" class="st1" width="75.2" height="75.2"/>
		</g>
		
			<rect id="Rectangle-3-Copy-6" x="60.8" y="34.8" transform="matrix(0.7071 -0.7071 0.7071 0.7071 -7.6396 55.2132)" class="st2" width="4" height="4"/>
		
			<rect id="Rectangle-3-Copy-7" x="66.8" y="40.8" transform="matrix(0.7071 -0.7071 0.7071 0.7071 -10.1249 61.2132)" class="st2" width="4" height="4"/>
		
			<rect id="Rectangle-3-Copy-8" x="72.8" y="46.8" transform="matrix(0.7071 -0.7071 0.7071 0.7071 -12.6102 67.2132)" class="st2" width="4" height="4"/>
		
			<rect id="Rectangle-3-Copy-9" x="60.8" y="46.8" transform="matrix(0.7071 -0.7071 0.7071 0.7071 -16.1249 58.7279)" class="st2" width="4" height="4"/>
		
			<rect id="Rectangle-3-Copy-10" x="66.8" y="52.8" transform="matrix(0.7071 -0.7071 0.7071 0.7071 -18.6102 64.7279)" class="st2" width="4" height="4"/>
		
			<rect id="Rectangle-3-Copy-11" x="39.8" y="67.8" transform="matrix(0.7071 -0.7071 0.7071 0.7071 -37.1249 50.0294)" class="st2" width="4" height="4"/>
		
			<rect id="Rectangle-3-Copy-12" x="45.8" y="73.8" transform="matrix(0.7071 -0.7071 0.7071 0.7071 -39.6102 56.0294)" class="st2" width="4" height="4"/>
	</g>
</g>
</svg>
