<?xml version="1.0" encoding="utf-8"?>
<!-- Generator: Adobe Illustrator 23.0.0, SVG Export Plug-In . SVG Version: 6.00 Build 0)  -->
<svg version="1.1" id="Слой_1" xmlns="http://www.w3.org/2000/svg" xmlns:xlink="http://www.w3.org/1999/xlink" x="0px" y="0px"
	 viewBox="0 0 850.394 425.197" style="enable-background:new 0 0 850.394 425.197;" xml:space="preserve">
<style type="text/css">
	.st0{fill-rule:evenodd;clip-rule:evenodd;fill:#FFFFFF;}
</style>
<g>
	<g>
		<path class="st0" d="M301.446,172.911l-0.026,0.042l-0.027,0.043l-0.047,0.076l-0.018,0.03l-1.243,2.021l-0.103,0.167
			l-0.072,0.117l-0.181,0.296l-0.114,0.184l-0.075,0.122l-0.195,0.318c-7.714,12.536-15.412,25.079-23.115,37.621
			c-0.148,0.209-0.364,0.335-0.635,0.336h-7.383c-0.566,0-0.921-0.569-0.664-1.031c-0.024-0.023,33.878-55.301,33.898-55.301
			c0.29-0.447,0.988-0.447,1.279,0c0.02,0,33.922,55.278,33.898,55.301c0.257,0.462-0.097,1.031-0.664,1.031h-7.383
			c-0.272-0.001-0.488-0.127-0.636-0.336c-7.703-12.542-15.401-25.085-23.115-37.621l-0.195-0.318l-0.075-0.122l-0.114-0.184
			l-0.182-0.296l-0.072-0.117l-0.103-0.167l-1.243-2.021l-0.018-0.03l-0.047-0.076l-0.026-0.043l-0.026-0.042
			c-0.058-0.09-0.134-0.162-0.221-0.215v-0.001l-0.02-0.012v0l-0.02-0.011v-0.001l-0.021-0.01v-0.001l-0.021-0.01v-0.001
			l-0.021-0.009v-0.001l-0.022-0.008v0l-0.022-0.008h-0.001l-0.022-0.008h0l-0.022-0.007v-0.001l-0.022-0.006h-0.001l-0.045-0.01
			l-0.022-0.004h-0.001l-0.022-0.004h0l-0.022-0.003h-0.001l-0.023-0.003l-0.023-0.001l-0.024-0.001v-0.001h-0.023l-0.046,0.001
			l-0.023,0.001h0l-0.023,0.003l-0.023,0.003l-0.023,0.004l-0.022,0.004h0l-0.022,0.005v0.001l-0.023,0.005l-0.022,0.006
			l-0.001,0.001l-0.022,0.007l-0.022,0.008l-0.022,0.008v0l-0.022,0.008v0.001l-0.021,0.009v0.001l-0.021,0.01v0.001l-0.02,0.01
			v0.001l-0.02,0.011l0,0l-0.02,0.012v0.001C301.581,172.749,301.505,172.821,301.446,172.911L301.446,172.911z M301.481,187.009
			l-7.242,11.703l0.002,0.003c-0.047,0.095-0.073,0.201-0.073,0.314c0,0.391,0.317,0.707,0.708,0.707h7.21h7.21
			c0.391,0,0.708-0.317,0.708-0.707c0-0.113-0.026-0.219-0.073-0.314l0.002-0.003l-7.243-11.703l0,0
			c-0.125-0.203-0.348-0.338-0.604-0.338S301.606,186.806,301.481,187.009z"/>
		<path class="st0" d="M554.179,207.096l27.891-0.001c0.384,0,0.695,0.311,0.695,0.695v5.785c0,0.384-0.311,0.695-0.695,0.695
			l-35.047,0c-0.384,0-0.695-0.311-0.695-0.695v-55.223c0-0.384,0.311-0.695,0.695-0.695h5.785c0.384,0,0.695,0.311,0.695,0.695
			l0,48.066C553.512,206.789,553.81,207.087,554.179,207.096z"/>
		<path class="st0" d="M408.828,158.709c-0.266-0.455,0.062-1.051,0.589-1.051c8.019,0,16.038,0,24.057,0
			c9.799,0,17.743,7.944,17.743,17.743c0,8.038-5.346,14.827-12.676,17.008c0.015,0,12.757,20.852,12.754,20.855
			c0.254,0.456-0.096,1.018-0.655,1.018h-7.293c-0.269-0.001-0.482-0.125-0.628-0.332c-1.416-2.305-16.521-26.905-16.525-26.905
			c-0.289-0.45,0.02-1.059,0.567-1.075c2.391,0,4.322,0,6.713,0c5.837,0,10.569-4.732,10.569-10.569s-4.732-10.569-10.569-10.569
			c0,0-18.797,0-20.502,0c-0.249,0-0.468-0.131-0.592-0.327L408.828,158.709z"/>
		<path class="st0" d="M352.326,185.964c0,11.671,9.46,21.132,21.131,21.132c5.218,0,9.706-1.764,13.667-5.02
			c0.274-0.274,0.724-0.27,0.993,0.01l4.089,4.09c0.274,0.273,0.27,0.726-0.01,0.993c-5.378,4.616-11.624,7.102-18.74,7.102
			c-15.633,0-28.307-12.673-28.307-28.307c0-15.633,12.673-28.307,28.307-28.307c7.116,0,13.362,2.485,18.74,7.101
			c0.279,0.268,0.283,0.721,0.01,0.994l-4.089,4.089c-0.269,0.28-0.719,0.284-0.993,0.01c-3.961-3.256-8.449-5.02-13.667-5.02
			C361.786,164.833,352.326,174.294,352.326,185.964z"/>
		<path class="st0" d="M500.187,214.262c0.383,0,0.707-0.296,0.707-0.696c0-6.777,0-13.554,0-20.331
			c0.003-0.112,0.031-0.215,0.083-0.312c6.077-10.562,20.679-34.257,20.674-34.262c0.237-0.453-0.085-1.008-0.604-1.017
			c-2.292-0.067-4.59,0-6.883,0c-0.253,0.001-0.453,0.126-0.59,0.332c-4.965,8.588-15.671,25.572-15.668,25.567
			c-0.121,0.21-0.347,0.351-0.606,0.351c-0.247,0-0.465-0.128-0.589-0.322c0.109,0.19-10.833-17.201-15.686-25.596
			c-0.137-0.206-0.337-0.331-0.59-0.332c-2.293,0-4.59-0.067-6.883,0c-0.519,0.009-0.84,0.564-0.604,1.017
			c-0.005,0.005,14.597,23.7,20.674,34.262c0.052,0.098,0.08,0.201,0.083,0.312c0,6.777,0,13.554,0,20.331
			c0,0.399,0.324,0.696,0.707,0.696H500.187z"/>
	</g>
	<path class="st0" d="M373.454,264.357c-2.206-2.206-3.309-4.884-3.309-8.036c0-3.146,1.103-5.824,3.309-8.03
		c2.206-2.206,4.884-3.309,8.035-3.309c1.113,0,2.19,0.158,3.214,0.473c1.024,0.31,1.875,0.688,2.547,1.129
		c0.672,0.441,1.26,0.887,1.77,1.339c0.504,0.452,0.872,0.835,1.098,1.155l0.352,0.473l-1.581,1.418
		c-0.063-0.105-0.158-0.242-0.278-0.41c-0.121-0.168-0.41-0.467-0.861-0.898c-0.452-0.431-0.94-0.814-1.471-1.145
		c-0.525-0.336-1.224-0.641-2.085-0.919c-0.861-0.273-1.764-0.415-2.704-0.415c-2.526,0-4.653,0.877-6.387,2.631
		c-1.733,1.754-2.6,3.923-2.6,6.507c0,2.589,0.867,4.758,2.6,6.512c1.733,1.754,3.86,2.631,6.387,2.631
		c0.94,0,1.843-0.131,2.704-0.394c0.861-0.263,1.576-0.578,2.148-0.945c0.567-0.373,1.066-0.735,1.502-1.103
		c0.431-0.363,0.735-0.683,0.919-0.961l0.294-0.384l1.57,1.429c-0.084,0.126-0.21,0.289-0.378,0.488
		c-0.168,0.2-0.546,0.562-1.124,1.082c-0.578,0.525-1.192,0.992-1.838,1.402c-0.646,0.41-1.497,0.777-2.547,1.098
		c-1.051,0.325-2.138,0.488-3.251,0.488C378.338,267.666,375.66,266.563,373.454,264.357L373.454,264.357z M408.904,267.356h-13.707
		v-22.063h2.369v19.862h11.339V267.356L408.904,267.356z M412.827,267.356v-22.063h2.369v22.063H412.827L412.827,267.356z
		 M424.166,265.155h13.077v2.201h-15.446v-22.063h15.125v2.216h-12.757v7.248h10.23v2.2h-10.23V265.155L424.166,265.155z
		 M457.557,245.293h2.353v22.063h-2.048l-13.539-17.804v17.804h-2.369v-22.063h2.048l13.555,17.814V245.293L457.557,245.293z
		 M463.849,245.293h16.234v2.216h-6.938v19.847h-2.358v-19.847h-6.938V245.293z"/>
</g>
</svg>
