<?xml version="1.0" encoding="UTF-8"?>
<!DOCTYPE svg PUBLIC "-//W3C//DTD SVG 1.1//EN" "http://www.w3.org/Graphics/SVG/1.1/DTD/svg11.dtd">
<!-- Creator: CorelDRAW 2019 (64-Bit) -->
<svg xmlns="http://www.w3.org/2000/svg" xml:space="preserve" width="147.49mm" height="120.7mm" version="1.1" style="shape-rendering:geometricPrecision; text-rendering:geometricPrecision; image-rendering:optimizeQuality; fill-rule:evenodd; clip-rule:evenodd"
viewBox="0 0 14749 12070"
 xmlns:xlink="http://www.w3.org/1999/xlink">
 <defs>
  <style type="text/css">
   <![CDATA[
    .fil0 {fill:black}
   ]]>
  </style>
 </defs>
 <g id="Слой_x0020_1">
  <metadata id="CorelCorpID_0Corel-Layer"/>
  <g id="_2222712896288">
   <path class="fil0" d="M7231.23 3258.61l-5.49 9.02 -5.7 9.15 -9.9 16.14 -3.86 6.24 -264.79 430.44 -21.97 35.47 -15.19 24.88 -38.72 63 -24.2 39.26 -16.07 26.03 -41.57 67.68c-1643.04,2670.19 -3282.63,5341.74 -4923.5,8013.22 -31.53,44.41 -77.44,71.26 -135.28,71.4 0,0 -1572.66,0 -1572.66,0 -120.56,0 -196.03,-121.04 -141.31,-219.42 -5.15,-4.89 7215.81,-11779.19 7220.21,-11779.19 61.71,-95.2 210.55,-95.2 272.32,0 4.41,0 7225.43,11774.3 7220.14,11779.19 54.72,98.38 -20.61,219.42 -141.38,219.42 0,0 -1572.52,0 -1572.52,0 -57.91,-0.14 -103.88,-26.99 -135.34,-71.4 -1640.88,-2671.48 -3280.4,-5343.17 -4923.44,-8013.22l-41.5 -67.68 -16.07 -26.03 -24.21 -39.26 -38.71 -63 -15.26 -24.88 -21.9 -35.47 -264.86 -430.44 -3.8 -6.24 -9.96 -16.14 -5.7 -9.15 -5.49 -9.02c-12.21,-18.98 -28.62,-34.31 -46.92,-45.7l0 -0.07 -4.28 -2.57 0 -0.14 -4.34 -2.17 0 -0.2 -4.34 -2.17 0 -0.07 -4.47 -2.1 0 -0.14 -4.54 -1.83 0 -0.07 -4.55 -1.9 0 -0.06 -4.61 -1.63 -0.07 0 -4.61 -1.63 -0.13 0 -4.68 -1.35 0 -0.21 -4.61 -1.29 -0.14 0 -9.56 -2.1 -4.81 -0.95 -0.07 0 -4.82 -0.74 -0.06 0 -4.82 -0.68 -0.07 0 -4.88 -0.48 -4.88 -0.34 -5.02 -0.13 0 -0.07 -4.88 0 -9.83 0.2 -4.88 0.34 -0.14 0 -4.88 0.48 -4.88 0.68 -4.89 0.74 -4.74 0.95 -0.14 0 -4.74 0.88 0 0.14 -4.82 1.08 -4.68 1.29 -0.13 0.21 -4.68 1.35 -4.68 1.63 -4.61 1.63 0 0.06 -4.54 1.9 0 0.07 -4.48 1.83 0 0.14 -4.54 2.1 0 0.07 -4.34 2.17 0 0.2 -4.27 2.17 -0.14 0.14 -4.2 2.57 0 0.07c-18.24,11.39 -34.31,26.44 -46.93,45.7zm7.53 3002.93l-1542.62 2492.81 0.41 0.67c-9.97,20.14 -15.6,42.72 -15.6,66.79 0,83.14 67.47,150.67 150.67,150.67l1535.77 0 1535.71 0c83.26,0 150.66,-67.53 150.66,-150.67 0,-24.07 -5.62,-46.65 -15.52,-66.79l0.4 -0.67 -1542.69 -2492.81 -0.06 0c-26.45,-43.2 -74.12,-72.08 -128.5,-72.08 -54.45,0 -102.12,28.88 -128.63,72.08z"/>
  </g>
 </g>
</svg>
