<?xml version="1.0" encoding="utf-8"?>
<!-- Generator: Adobe Illustrator 21.1.0, SVG Export Plug-In . SVG Version: 6.00 Build 0)  -->
<svg version="1.1" id="Layer_1" xmlns="http://www.w3.org/2000/svg" xmlns:xlink="http://www.w3.org/1999/xlink" x="0px" y="0px"
	 viewBox="0 0 132 112" style="enable-background:new 0 0 132 112;" xml:space="preserve">
<style type="text/css">
	.st0{fill:#2D2D2D;}
	.st1{fill:none;stroke:#F6BD6C;stroke-width:3;}
</style>
<g>
	<g transform="rotate(45 71.123 61.353)">
		<g>
			<polygon id="_x32__x5F_wallet-a" class="st0" points="32,14.7 110.2,14.7 110.2,92.9 95.1,108 32,92.9 			"/>
		</g>
		<path class="st1" d="M33.5,16.2v75.5l61.1,14.7l14.1-14.1V16.2H33.5z"/>
	</g>
	<g transform="rotate(45 66.581 55.996)">
		<g>

				<rect id="_x32__x5F_wallet-b" x="27.5" y="16.9" transform="matrix(2.535182e-06 1 -1 2.535182e-06 122.5768 -10.5851)" class="st0" width="78.2" height="78.2"/>
		</g>

			<rect x="29" y="18.4" transform="matrix(2.535182e-06 1 -1 2.535182e-06 122.5768 -10.5851)" class="st1" width="75.2" height="75.2"/>
	</g>
	<g transform="rotate(45 55.989 55.996)">
		<g>

				<rect id="_x32__x5F_wallet-c" x="16.9" y="16.9" transform="matrix(2.535182e-06 1 -1 2.535182e-06 111.9838 7.859521e-03)" class="st0" width="78.2" height="78.2"/>
		</g>

			<rect x="18.4" y="18.4" transform="matrix(2.535182e-06 1 -1 2.535182e-06 111.9838 7.859521e-03)" class="st1" width="75.2" height="75.2"/>
	</g>
	<g transform="rotate(45 75.616 34.883)">
		<g>

				<rect id="_x32__x5F_wallet-d" x="65.8" y="25.1" transform="matrix(2.535182e-06 1 -1 2.535182e-06 110.4988 -40.7331)" class="st0" width="19.6" height="19.6"/>
		</g>

			<rect x="67.3" y="26.6" transform="matrix(2.535182e-06 1 -1 2.535182e-06 110.4988 -40.7331)" class="st1" width="16.6" height="16.6"/>
	</g>
</g>
</svg>
