<?xml version="1.0" encoding="UTF-8"?>
<svg xmlns="http://www.w3.org/2000/svg" xmlns:xlink="http://www.w3.org/1999/xlink" width="18pt" height="14pt" viewBox="0 0 18 14" version="1.1">
<g id="surface1">
<path style=" stroke:none;fill-rule:evenodd;fill:rgb(69.803922%,0%,0%);fill-opacity:1;" d="M 0 0 L 27.003906 0 L 27.003906 9.300781 L 0 9.300781 Z M 0 0 "/>
<path style=" stroke:none;fill-rule:evenodd;fill:rgb(25.882353%,62.352941%,0%);fill-opacity:1;" d="M 0 9.300781 L 27.003906 9.300781 L 27.003906 14 L 0 14 Z M 0 9.300781 "/>
<path style=" stroke:none;fill-rule:evenodd;fill:rgb(100%,100%,100%);fill-opacity:1;" d="M 0 0 L 2.992188 0 L 2.992188 14 L 0 14 Z M 0 0 "/>
<path style=" stroke:none;fill-rule:evenodd;fill:rgb(69.803922%,0%,0%);fill-opacity:1;" d="M 0.140625 0.238281 L 0.285156 0.238281 L 0.285156 0.476562 L 0.140625 0.476562 Z M 0.570312 0.238281 L 0.996094 0.238281 L 0.996094 0.476562 L 0.570312 0.476562 Z M 0.710938 0 L 0.855469 0 L 0.855469 0.238281 L 0.710938 0.238281 Z M 1.425781 0 L 1.566406 0 L 1.566406 0.238281 L 1.425781 0.238281 Z M 1.992188 0.238281 L 2.421875 0.238281 L 2.421875 0.476562 L 1.992188 0.476562 Z M 2.136719 0 L 2.277344 0 L 2.277344 0.238281 L 2.136719 0.238281 Z M 0.425781 0.476562 L 0.710938 0.476562 L 0.710938 0.710938 L 0.425781 0.710938 Z M 0.855469 0.476562 L 1.140625 0.476562 L 1.140625 0.710938 L 0.855469 0.710938 Z M 1.851562 0.476562 L 2.136719 0.476562 L 2.136719 0.710938 L 1.851562 0.710938 Z M 2.277344 0.476562 L 2.5625 0.476562 L 2.5625 0.710938 L 2.277344 0.710938 Z M 0.285156 0.710938 L 0.570312 0.710938 L 0.570312 0.949219 L 0.285156 0.949219 Z M 0.996094 0.710938 L 1.28125 0.710938 L 1.28125 0.949219 L 0.996094 0.949219 Z M 1.707031 0.710938 L 1.992188 0.710938 L 1.992188 0.949219 L 1.707031 0.949219 Z M 2.421875 0.710938 L 2.707031 0.710938 L 2.707031 0.949219 L 2.421875 0.949219 Z M 2.707031 0.238281 L 2.847656 0.238281 L 2.847656 0.476562 L 2.707031 0.476562 Z M 0.140625 0.949219 L 0.425781 0.949219 L 0.425781 1.1875 L 0.140625 1.1875 Z M 1.140625 0.949219 L 1.425781 0.949219 L 1.425781 1.1875 L 1.140625 1.1875 Z M 2.5625 0.949219 L 2.847656 0.949219 L 2.847656 1.1875 L 2.5625 1.1875 Z M 0.285156 1.660156 L 0.570312 1.660156 L 0.570312 1.898438 L 0.285156 1.898438 Z M 0.425781 1.898438 L 0.710938 1.898438 L 0.710938 2.136719 L 0.425781 2.136719 Z M 0.996094 1.664062 L 1.28125 1.664062 L 1.28125 1.898438 L 0.996094 1.898438 Z M 0.855469 1.898438 L 1.140625 1.898438 L 1.140625 2.136719 L 0.855469 2.136719 Z M 0.570312 2.136719 L 0.996094 2.136719 L 0.996094 2.375 L 0.570312 2.375 Z M 0.570312 2.136719 "/>
<path style=" stroke:none;fill-rule:evenodd;fill:rgb(69.803922%,0%,0%);fill-opacity:1;" d="M 0.710938 2.375 L 0.855469 2.375 L 0.855469 2.609375 L 0.710938 2.609375 Z M 1.707031 1.664062 L 1.992188 1.664062 L 1.992188 1.898438 L 1.707031 1.898438 Z M 1.851562 1.898438 L 2.136719 1.898438 L 2.136719 2.136719 L 1.851562 2.136719 Z M 2.421875 1.664062 L 2.707031 1.664062 L 2.707031 1.898438 L 2.421875 1.898438 Z M 2.277344 1.898438 L 2.5625 1.898438 L 2.5625 2.136719 L 2.277344 2.136719 Z M 1.992188 2.136719 L 2.421875 2.136719 L 2.421875 2.375 L 1.992188 2.375 Z M 2.136719 2.375 L 2.277344 2.375 L 2.277344 2.609375 L 2.136719 2.609375 Z M 1.425781 2.132812 L 1.566406 2.132812 L 1.566406 2.371094 L 1.425781 2.371094 Z M 0 2.132812 L 0.140625 2.132812 L 0.140625 2.371094 L 0 2.371094 Z M 2.847656 2.132812 L 2.992188 2.132812 L 2.992188 2.371094 L 2.847656 2.371094 Z M 0.710938 3.320312 L 0.855469 3.320312 L 0.855469 3.558594 L 0.710938 3.558594 Z M 0.570312 3.558594 L 0.996094 3.558594 L 0.996094 3.796875 L 0.570312 3.796875 Z M 0.425781 3.796875 L 1.140625 3.796875 L 1.140625 4.03125 L 0.425781 4.03125 Z M 2.136719 3.320312 L 2.277344 3.320312 L 2.277344 3.558594 L 2.136719 3.558594 Z M 1.992188 3.558594 L 2.421875 3.558594 L 2.421875 3.796875 L 1.992188 3.796875 Z M 1.851562 3.796875 L 2.5625 3.796875 L 2.5625 4.03125 L 1.851562 4.03125 Z M 1.992188 4.980469 L 2.707031 4.980469 L 2.707031 5.21875 L 1.992188 5.21875 Z M 1.707031 4.03125 L 2.707031 4.03125 L 2.707031 4.269531 L 1.707031 4.269531 Z M 0.285156 4.03125 L 1.28125 4.03125 L 1.28125 4.269531 L 0.285156 4.269531 Z M 0.425781 5.21875 L 0.855469 5.21875 L 0.855469 5.457031 L 0.425781 5.457031 Z M 0.285156 4.980469 L 0.996094 4.980469 L 0.996094 5.21875 L 0.285156 5.21875 Z M 2.277344 4.511719 L 2.992188 4.511719 L 2.992188 4.75 L 2.277344 4.75 Z M 2.136719 5.222656 L 2.5625 5.222656 L 2.5625 5.460938 L 2.136719 5.460938 Z M 2.136719 5.222656 "/>
<path style=" stroke:none;fill-rule:evenodd;fill:rgb(69.803922%,0%,0%);fill-opacity:1;" d="M 0.570312 5.457031 L 0.710938 5.457031 L 0.710938 5.695312 L 0.570312 5.695312 Z M 2.277344 5.457031 L 2.421875 5.457031 L 2.421875 5.695312 L 2.277344 5.695312 Z M 0 4.507812 L 0.710938 4.507812 L 0.710938 4.746094 L 0 4.746094 Z M 1.28125 4.980469 L 1.707031 4.980469 L 1.707031 5.21875 L 1.28125 5.21875 Z M 1.425781 5.222656 L 1.566406 5.222656 L 1.566406 5.460938 L 1.425781 5.460938 Z M 0.996094 4.511719 L 1.992188 4.511719 L 1.992188 4.75 L 0.996094 4.75 Z M 1.566406 0.949219 L 1.851562 0.949219 L 1.851562 1.1875 L 1.566406 1.1875 Z M 1.28125 1.1875 L 1.707031 1.1875 L 1.707031 1.425781 L 1.28125 1.425781 Z M 1.140625 1.425781 L 1.425781 1.425781 L 1.425781 1.660156 L 1.140625 1.660156 Z M 1.566406 1.425781 L 1.851562 1.425781 L 1.851562 1.660156 L 1.566406 1.660156 Z M 0 1.1875 L 0.285156 1.1875 L 0.285156 1.425781 L 0 1.425781 Z M 0.140625 1.425781 L 0.425781 1.425781 L 0.425781 1.660156 L 0.140625 1.660156 Z M 2.707031 1.1875 L 2.992188 1.1875 L 2.992188 1.421875 L 2.707031 1.421875 Z M 2.5625 1.421875 L 2.847656 1.421875 L 2.847656 1.65625 L 2.5625 1.65625 Z M 0 3.554688 L 0.140625 3.554688 L 0.140625 3.792969 L 0 3.792969 Z M 2.847656 3.554688 L 2.992188 3.554688 L 2.992188 3.792969 L 2.847656 3.792969 Z M 1.28125 5.453125 L 1.707031 5.453125 L 1.707031 5.691406 L 1.28125 5.691406 Z M 1.140625 5.691406 L 1.425781 5.691406 L 1.425781 5.929688 L 1.140625 5.929688 Z M 1.566406 5.691406 L 1.851562 5.691406 L 1.851562 5.929688 L 1.566406 5.929688 Z M 0.996094 5.929688 L 1.28125 5.929688 L 1.28125 6.164062 L 0.996094 6.164062 Z M 1.707031 5.929688 L 1.992188 5.929688 L 1.992188 6.164062 L 1.707031 6.164062 Z M 0.855469 6.164062 L 1.140625 6.164062 L 1.140625 6.402344 L 0.855469 6.402344 Z M 1.851562 6.164062 L 2.136719 6.164062 L 2.136719 6.402344 L 1.851562 6.402344 Z M 0.710938 6.40625 L 0.996094 6.40625 L 0.996094 6.644531 L 0.710938 6.644531 Z M 1.992188 6.40625 L 2.277344 6.40625 L 2.277344 6.644531 L 1.992188 6.644531 Z M 0.425781 6.644531 L 0.855469 6.644531 L 0.855469 6.882812 L 0.425781 6.882812 Z M 2.136719 6.644531 L 2.5625 6.644531 L 2.5625 6.882812 L 2.136719 6.882812 Z M 2.421875 6.40625 L 2.707031 6.40625 L 2.707031 6.644531 L 2.421875 6.644531 Z M 2.5625 6.167969 L 2.847656 6.167969 L 2.847656 6.40625 L 2.5625 6.40625 Z M 2.707031 5.929688 L 2.992188 5.929688 L 2.992188 6.167969 L 2.707031 6.167969 Z M 0.285156 6.40625 L 0.570312 6.40625 L 0.570312 6.644531 L 0.285156 6.644531 Z M 0.140625 6.167969 L 0.425781 6.167969 L 0.425781 6.40625 L 0.140625 6.40625 Z M 0 5.933594 L 0.285156 5.933594 L 0.285156 6.171875 L 0 6.171875 Z M 0.570312 6.886719 L 0.710938 6.886719 L 0.710938 7.121094 L 0.570312 7.121094 Z M 2.277344 6.886719 L 2.421875 6.886719 L 2.421875 7.121094 L 2.277344 7.121094 Z M 1.425781 6.175781 L 1.566406 6.175781 L 1.566406 6.410156 L 1.425781 6.410156 Z M 0.996094 6.886719 L 1.140625 6.886719 L 1.140625 7.121094 L 0.996094 7.121094 Z M 1.851562 6.886719 L 1.992188 6.886719 L 1.992188 7.121094 L 1.851562 7.121094 Z M 1.425781 6.886719 L 1.566406 6.886719 L 1.566406 7.121094 L 1.425781 7.121094 Z M 0 6.886719 L 0.140625 6.886719 L 0.140625 7.121094 L 0 7.121094 Z M 2.847656 6.886719 L 2.992188 6.886719 L 2.992188 7.121094 L 2.847656 7.121094 Z M 1.425781 3.558594 L 1.566406 3.558594 L 1.566406 3.796875 L 1.425781 3.796875 Z M 0.710938 1.1875 L 0.855469 1.1875 L 0.855469 1.425781 L 0.710938 1.425781 Z M 2.136719 1.1875 L 2.277344 1.1875 L 2.277344 1.425781 L 2.136719 1.425781 Z M 1.28125 2.847656 L 1.707031 2.847656 L 1.707031 3.085938 L 1.28125 3.085938 Z M 0.996094 3.085938 L 1.425781 3.085938 L 1.425781 3.320312 L 0.996094 3.320312 Z M 1.140625 3.320312 L 1.28125 3.320312 L 1.28125 3.558594 L 1.140625 3.558594 Z M 0.855469 2.847656 L 1.140625 2.847656 L 1.140625 3.085938 L 0.855469 3.085938 Z M 0.996094 2.609375 L 1.425781 2.609375 L 1.425781 2.847656 L 0.996094 2.847656 Z M 1.140625 2.375 L 1.28125 2.375 L 1.28125 2.609375 L 1.140625 2.609375 Z M 1.566406 2.609375 L 1.992188 2.609375 L 1.992188 2.847656 L 1.566406 2.847656 Z M 1.707031 2.375 L 1.851562 2.375 L 1.851562 2.609375 L 1.707031 2.609375 Z M 1.851562 2.847656 L 2.136719 2.847656 L 2.136719 3.085938 L 1.851562 3.085938 Z M 1.566406 3.085938 L 1.992188 3.085938 L 1.992188 3.320312 L 1.566406 3.320312 Z M 1.707031 3.320312 L 1.851562 3.320312 L 1.851562 3.558594 L 1.707031 3.558594 Z M 2.277344 2.847656 L 2.5625 2.847656 L 2.5625 3.085938 L 2.277344 3.085938 Z M 2.421875 2.609375 L 2.847656 2.609375 L 2.847656 2.847656 L 2.421875 2.847656 Z M 2.707031 2.847656 L 2.992188 2.847656 L 2.992188 3.085938 L 2.707031 3.085938 Z M 2.421875 3.085938 L 2.847656 3.085938 L 2.847656 3.320312 L 2.421875 3.320312 Z M 2.5625 3.320312 L 2.707031 3.320312 L 2.707031 3.558594 L 2.5625 3.558594 Z M 2.5625 2.375 L 2.707031 2.375 L 2.707031 2.609375 L 2.5625 2.609375 Z M 0 2.84375 L 0.285156 2.84375 L 0.285156 3.082031 L 0 3.082031 Z M 0.140625 2.609375 L 0.570312 2.609375 L 0.570312 2.84375 L 0.140625 2.84375 Z M 0.425781 2.84375 L 0.710938 2.84375 L 0.710938 3.082031 L 0.425781 3.082031 Z M 0.140625 3.082031 L 0.570312 3.082031 L 0.570312 3.320312 L 0.140625 3.320312 Z M 0.140625 3.082031 "/>
<path style=" stroke:none;fill-rule:evenodd;fill:rgb(69.803922%,0%,0%);fill-opacity:1;" d="M 0.285156 3.320312 L 0.425781 3.320312 L 0.425781 3.558594 L 0.285156 3.558594 Z M 0.285156 2.375 L 0.425781 2.375 L 0.425781 2.609375 L 0.285156 2.609375 Z M 0.140625 4.269531 L 0.710938 4.269531 L 0.710938 4.507812 L 0.140625 4.507812 Z M 0.855469 4.269531 L 1.425781 4.269531 L 1.425781 4.507812 L 0.855469 4.507812 Z M 1.566406 4.269531 L 2.136719 4.269531 L 2.136719 4.507812 L 1.566406 4.507812 Z M 2.277344 4.269531 L 2.847656 4.269531 L 2.847656 4.507812 L 2.277344 4.507812 Z M 1.140625 4.746094 L 1.851562 4.746094 L 1.851562 4.980469 L 1.140625 4.980469 Z M 0.140625 4.746094 L 0.855469 4.746094 L 0.855469 4.980469 L 0.140625 4.980469 Z M 2.136719 4.746094 L 2.847656 4.746094 L 2.847656 4.980469 L 2.136719 4.980469 Z M 2.847656 5.695312 L 2.992188 5.695312 L 2.992188 5.929688 L 2.847656 5.929688 Z M 0 5.695312 L 0.140625 5.695312 L 0.140625 5.929688 L 0 5.929688 Z M 0.140625 13.761719 L 0.285156 13.761719 L 0.285156 13.527344 L 0.140625 13.527344 Z M 0.570312 13.761719 L 0.996094 13.761719 L 0.996094 13.527344 L 0.570312 13.527344 Z M 0.710938 14 L 0.855469 14 L 0.855469 13.761719 L 0.710938 13.761719 Z M 1.425781 14 L 1.566406 14 L 1.566406 13.761719 L 1.425781 13.761719 Z M 1.992188 13.761719 L 2.421875 13.761719 L 2.421875 13.523438 L 1.992188 13.523438 Z M 2.136719 14 L 2.277344 14 L 2.277344 13.761719 L 2.136719 13.761719 Z M 0.425781 13.523438 L 0.710938 13.523438 L 0.710938 13.289062 L 0.425781 13.289062 Z M 0.855469 13.523438 L 1.140625 13.523438 L 1.140625 13.289062 L 0.855469 13.289062 Z M 1.851562 13.523438 L 2.136719 13.523438 L 2.136719 13.289062 L 1.851562 13.289062 Z M 2.277344 13.523438 L 2.5625 13.523438 L 2.5625 13.289062 L 2.277344 13.289062 Z M 0.996094 13.289062 L 1.28125 13.289062 L 1.28125 13.050781 L 0.996094 13.050781 Z M 1.707031 13.289062 L 1.992188 13.289062 L 1.992188 13.050781 L 1.707031 13.050781 Z M 2.421875 13.289062 L 2.707031 13.289062 L 2.707031 13.050781 L 2.421875 13.050781 Z M 2.707031 13.761719 L 2.847656 13.761719 L 2.847656 13.523438 L 2.707031 13.523438 Z M 0.140625 13.050781 L 0.425781 13.050781 L 0.425781 12.8125 L 0.140625 12.8125 Z M 1.140625 13.050781 L 1.425781 13.050781 L 1.425781 12.8125 L 1.140625 12.8125 Z M 2.5625 13.050781 L 2.847656 13.050781 L 2.847656 12.8125 L 2.5625 12.8125 Z M 0.285156 12.339844 L 0.570312 12.339844 L 0.570312 12.101562 L 0.285156 12.101562 Z M 0.425781 12.101562 L 0.710938 12.101562 L 0.710938 11.863281 L 0.425781 11.863281 Z M 0.996094 12.339844 L 1.28125 12.339844 L 1.28125 12.101562 L 0.996094 12.101562 Z M 0.855469 12.101562 L 1.140625 12.101562 L 1.140625 11.863281 L 0.855469 11.863281 Z M 0.570312 11.863281 L 0.996094 11.863281 L 0.996094 11.625 L 0.570312 11.625 Z M 0.710938 11.625 L 0.855469 11.625 L 0.855469 11.390625 L 0.710938 11.390625 Z M 1.707031 12.335938 L 1.992188 12.335938 L 1.992188 12.101562 L 1.707031 12.101562 Z M 1.851562 12.101562 L 2.136719 12.101562 L 2.136719 11.863281 L 1.851562 11.863281 Z M 2.421875 12.339844 L 2.707031 12.339844 L 2.707031 12.101562 L 2.421875 12.101562 Z M 2.277344 12.101562 L 2.5625 12.101562 L 2.5625 11.863281 L 2.277344 11.863281 Z M 1.992188 11.863281 L 2.421875 11.863281 L 2.421875 11.625 L 1.992188 11.625 Z M 2.136719 11.625 L 2.277344 11.625 L 2.277344 11.390625 L 2.136719 11.390625 Z M 1.425781 11.867188 L 1.566406 11.867188 L 1.566406 11.628906 L 1.425781 11.628906 Z M 0 11.867188 L 0.140625 11.867188 L 0.140625 11.628906 L 0 11.628906 Z M 2.847656 11.867188 L 2.992188 11.867188 L 2.992188 11.628906 L 2.847656 11.628906 Z M 0.710938 10.679688 L 0.855469 10.679688 L 0.855469 10.441406 L 0.710938 10.441406 Z M 0.570312 10.441406 L 0.996094 10.441406 L 0.996094 10.203125 L 0.570312 10.203125 Z M 0.425781 10.203125 L 1.140625 10.203125 L 1.140625 9.96875 L 0.425781 9.96875 Z M 2.136719 10.679688 L 2.277344 10.679688 L 2.277344 10.441406 L 2.136719 10.441406 Z M 2.136719 10.679688 "/>
<path style=" stroke:none;fill-rule:evenodd;fill:rgb(69.803922%,0%,0%);fill-opacity:1;" d="M 1.992188 10.441406 L 2.421875 10.441406 L 2.421875 10.203125 L 1.992188 10.203125 Z M 1.851562 10.203125 L 2.5625 10.203125 L 2.5625 9.96875 L 1.851562 9.96875 Z M 1.992188 9.019531 L 2.707031 9.019531 L 2.707031 8.777344 L 1.992188 8.777344 Z M 1.707031 9.96875 L 2.707031 9.96875 L 2.707031 9.730469 L 1.707031 9.730469 Z M 0.285156 9.96875 L 1.28125 9.96875 L 1.28125 9.730469 L 0.285156 9.730469 Z M 0.425781 8.78125 L 0.855469 8.78125 L 0.855469 8.542969 L 0.425781 8.542969 Z M 0.285156 9.019531 L 0.996094 9.019531 L 0.996094 8.777344 L 0.285156 8.777344 Z M 2.277344 9.488281 L 2.992188 9.488281 L 2.992188 9.25 L 2.277344 9.25 Z M 2.136719 8.777344 L 2.5625 8.777344 L 2.5625 8.539062 L 2.136719 8.539062 Z M 0 9.488281 L 0.710938 9.488281 L 0.710938 9.25 L 0 9.25 Z M 1.28125 9.015625 L 1.707031 9.015625 L 1.707031 8.777344 L 1.28125 8.777344 Z M 1.425781 8.777344 L 1.566406 8.777344 L 1.566406 8.539062 L 1.425781 8.539062 Z M 0.996094 9.488281 L 1.992188 9.488281 L 1.992188 9.25 L 0.996094 9.25 Z M 1.566406 13.046875 L 1.851562 13.046875 L 1.851562 12.8125 L 1.566406 12.8125 Z M 1.28125 12.8125 L 1.707031 12.8125 L 1.707031 12.578125 L 1.28125 12.578125 Z M 1.140625 12.574219 L 1.425781 12.574219 L 1.425781 12.335938 L 1.140625 12.335938 Z M 1.566406 12.574219 L 1.851562 12.574219 L 1.851562 12.335938 L 1.566406 12.335938 Z M 0 12.8125 L 0.285156 12.8125 L 0.285156 12.578125 L 0 12.578125 Z M 0.140625 12.574219 L 0.425781 12.574219 L 0.425781 12.339844 L 0.140625 12.339844 Z M 2.707031 12.8125 L 2.992188 12.8125 L 2.992188 12.578125 L 2.707031 12.578125 Z M 2.5625 12.574219 L 2.847656 12.574219 L 2.847656 12.339844 L 2.5625 12.339844 Z M 0 10.445312 L 0.140625 10.445312 L 0.140625 10.207031 L 0 10.207031 Z M 2.847656 10.445312 L 2.992188 10.445312 L 2.992188 10.207031 L 2.847656 10.207031 Z M 1.140625 8.308594 L 1.425781 8.308594 L 1.425781 8.070312 L 1.140625 8.070312 Z M 1.566406 8.308594 L 1.851562 8.308594 L 1.851562 8.070312 L 1.566406 8.070312 Z M 0.996094 8.070312 L 1.28125 8.070312 L 1.28125 7.835938 L 0.996094 7.835938 Z M 1.707031 8.070312 L 1.992188 8.070312 L 1.992188 7.835938 L 1.707031 7.835938 Z M 0.855469 7.835938 L 1.140625 7.835938 L 1.140625 7.597656 L 0.855469 7.597656 Z M 1.851562 7.835938 L 2.136719 7.835938 L 2.136719 7.597656 L 1.851562 7.597656 Z M 0.710938 7.59375 L 0.996094 7.59375 L 0.996094 7.355469 L 0.710938 7.355469 Z M 1.992188 7.59375 L 2.277344 7.59375 L 2.277344 7.355469 L 1.992188 7.355469 Z M 0.425781 7.355469 L 0.855469 7.355469 L 0.855469 7.117188 L 0.425781 7.117188 Z M 2.136719 7.355469 L 2.5625 7.355469 L 2.5625 7.117188 L 2.136719 7.117188 Z M 2.421875 7.59375 L 2.707031 7.59375 L 2.707031 7.355469 L 2.421875 7.355469 Z M 2.5625 7.832031 L 2.847656 7.832031 L 2.847656 7.59375 L 2.5625 7.59375 Z M 2.707031 8.070312 L 2.992188 8.070312 L 2.992188 7.832031 L 2.707031 7.832031 Z M 0.285156 7.59375 L 0.570312 7.59375 L 0.570312 7.355469 L 0.285156 7.355469 Z M 0.140625 7.832031 L 0.425781 7.832031 L 0.425781 7.59375 L 0.140625 7.59375 Z M 0 8.066406 L 0.285156 8.066406 L 0.285156 7.828125 L 0 7.828125 Z M 0.570312 7.113281 L 0.710938 7.113281 L 0.710938 6.878906 L 0.570312 6.878906 Z M 1.425781 7.824219 L 1.566406 7.824219 L 1.566406 7.589844 L 1.425781 7.589844 Z M 1.425781 10.4375 L 1.566406 10.4375 L 1.566406 10.203125 L 1.425781 10.203125 Z M 0.710938 12.8125 L 0.855469 12.8125 L 0.855469 12.578125 L 0.710938 12.578125 Z M 2.136719 12.8125 L 2.277344 12.8125 L 2.277344 12.578125 L 2.136719 12.578125 Z M 1.28125 11.15625 L 1.707031 11.15625 L 1.707031 10.917969 L 1.28125 10.917969 Z M 0.996094 10.917969 L 1.425781 10.917969 L 1.425781 10.679688 L 0.996094 10.679688 Z M 1.140625 10.679688 L 1.28125 10.679688 L 1.28125 10.441406 L 1.140625 10.441406 Z M 0.855469 11.15625 L 1.140625 11.15625 L 1.140625 10.917969 L 0.855469 10.917969 Z M 0.996094 11.390625 L 1.425781 11.390625 L 1.425781 11.15625 L 0.996094 11.15625 Z M 1.140625 11.625 L 1.28125 11.625 L 1.28125 11.390625 L 1.140625 11.390625 Z M 1.566406 11.390625 L 1.992188 11.390625 L 1.992188 11.15625 L 1.566406 11.15625 Z M 1.707031 11.625 L 1.851562 11.625 L 1.851562 11.390625 L 1.707031 11.390625 Z M 1.851562 11.152344 L 2.136719 11.152344 L 2.136719 10.914062 L 1.851562 10.914062 Z M 1.566406 10.914062 L 1.992188 10.914062 L 1.992188 10.679688 L 1.566406 10.679688 Z M 1.707031 10.679688 L 1.851562 10.679688 L 1.851562 10.441406 L 1.707031 10.441406 Z M 2.277344 11.15625 L 2.5625 11.15625 L 2.5625 10.917969 L 2.277344 10.917969 Z M 2.421875 11.390625 L 2.847656 11.390625 L 2.847656 11.15625 L 2.421875 11.15625 Z M 2.707031 11.152344 L 2.992188 11.152344 L 2.992188 10.914062 L 2.707031 10.914062 Z M 2.421875 10.914062 L 2.847656 10.914062 L 2.847656 10.679688 L 2.421875 10.679688 Z M 2.5625 10.679688 L 2.707031 10.679688 L 2.707031 10.441406 L 2.5625 10.441406 Z M 2.5625 11.625 L 2.707031 11.625 L 2.707031 11.390625 L 2.5625 11.390625 Z M 0 11.15625 L 0.285156 11.15625 L 0.285156 10.917969 L 0 10.917969 Z M 0.140625 11.390625 L 0.570312 11.390625 L 0.570312 11.15625 L 0.140625 11.15625 Z M 0.140625 11.390625 "/>
<path style=" stroke:none;fill-rule:evenodd;fill:rgb(69.803922%,0%,0%);fill-opacity:1;" d="M 0.425781 11.152344 L 0.710938 11.152344 L 0.710938 10.914062 L 0.425781 10.914062 Z M 0.140625 10.914062 L 0.570312 10.914062 L 0.570312 10.679688 L 0.140625 10.679688 Z M 0.285156 10.679688 L 0.425781 10.679688 L 0.425781 10.441406 L 0.285156 10.441406 Z M 0.285156 11.625 L 0.425781 11.625 L 0.425781 11.390625 L 0.285156 11.390625 Z M 0.140625 9.730469 L 0.710938 9.730469 L 0.710938 9.492188 L 0.140625 9.492188 Z M 0.855469 9.730469 L 1.425781 9.730469 L 1.425781 9.492188 L 0.855469 9.492188 Z M 1.566406 9.730469 L 2.136719 9.730469 L 2.136719 9.492188 L 1.566406 9.492188 Z M 2.277344 9.730469 L 2.847656 9.730469 L 2.847656 9.492188 L 2.277344 9.492188 Z M 1.140625 9.253906 L 1.851562 9.253906 L 1.851562 9.019531 L 1.140625 9.019531 Z M 0.140625 9.253906 L 0.855469 9.253906 L 0.855469 9.019531 L 0.140625 9.019531 Z M 2.136719 9.253906 L 2.847656 9.253906 L 2.847656 9.019531 L 2.136719 9.019531 Z M 2.847656 8.308594 L 2.992188 8.308594 L 2.992188 8.066406 L 2.847656 8.066406 Z M 0 8.308594 L 0.140625 8.308594 L 0.140625 8.066406 L 0 8.066406 Z M 1.28125 7.117188 L 1.425781 7.117188 L 1.425781 7.355469 L 1.28125 7.355469 Z M 1.566406 7.117188 L 1.707031 7.117188 L 1.707031 7.355469 L 1.566406 7.355469 Z M 1.566406 6.644531 L 1.707031 6.644531 L 1.707031 6.882812 L 1.566406 6.882812 Z M 1.28125 6.644531 L 1.425781 6.644531 L 1.425781 6.882812 L 1.28125 6.882812 Z M 0.285156 13.050781 L 0.570312 13.050781 L 0.570312 13.289062 L 0.285156 13.289062 Z M 2.277344 8.542969 L 2.421875 8.542969 L 2.421875 8.304688 L 2.277344 8.304688 Z M 0.570312 8.542969 L 0.710938 8.542969 L 0.710938 8.304688 L 0.570312 8.304688 Z M 1.28125 8.304688 L 1.707031 8.304688 L 1.707031 8.542969 L 1.28125 8.542969 Z M 1.28125 8.304688 "/>
</g>
</svg>
