<?xml version="1.0" encoding="UTF-8"?>
<svg xmlns="http://www.w3.org/2000/svg" xmlns:xlink="http://www.w3.org/1999/xlink" width="18pt" height="14pt" viewBox="0 0 18 14" version="1.1">
<g id="surface1">
<rect x="0" y="0" width="18" height="14" style="fill:rgb(0.392157%,12.941176%,41.176471%);fill-opacity:1;stroke:none;"/>
<path style=" stroke:none;fill-rule:nonzero;fill:rgb(100%,100%,100%);fill-opacity:1;" d="M -4.519531 0 L -4.519531 1.566406 L 19.527344 14.039062 L 22.554688 14.039062 L 22.554688 12.46875 L -1.492188 0 Z M 22.554688 0 L 22.554688 1.566406 L -1.492188 14.039062 L -4.519531 14.039062 L -4.519531 12.46875 L 19.527344 0 Z M 22.554688 0 "/>
<path style=" stroke:none;fill-rule:nonzero;fill:rgb(100%,100%,100%);fill-opacity:1;" d="M 6.761719 0 L 6.761719 14.039062 L 11.273438 14.039062 L 11.273438 0 Z M -4.519531 4.679688 L -4.519531 9.355469 L 22.554688 9.355469 L 22.554688 4.679688 Z M -4.519531 4.679688 "/>
<path style=" stroke:none;fill-rule:nonzero;fill:rgb(78.431373%,6.27451%,18.039216%);fill-opacity:1;" d="M -4.519531 5.613281 L -4.519531 8.421875 L 22.554688 8.421875 L 22.554688 5.613281 Z M 7.664062 0 L 7.664062 14.039062 L 10.371094 14.039062 L 10.371094 0 Z M -4.519531 14.039062 L 4.503906 9.355469 L 6.523438 9.355469 L -2.5 14.039062 Z M -4.519531 0 L 4.503906 4.679688 L 2.488281 4.679688 L -4.519531 1.046875 Z M 11.515625 4.679688 L 20.535156 0 L 22.554688 0 L 13.53125 4.679688 Z M 22.554688 14.039062 L 13.53125 9.355469 L 15.546875 9.355469 L 22.554688 12.988281 Z M 22.554688 14.039062 "/>
</g>
</svg>
